<svg width="24" height="24" viewBox="0 0 24 24" fill="none" xmlns="http://www.w3.org/2000/svg">
<circle cx="12" cy="12" r="12" fill="#DEDCDC"/>
<g clip-path="url(#clip0_1084_911)">
<path d="M11.1852 8.8405L9.30229 5.73518C9.25181 5.6135 9.12056 5.53906 8.97921 5.53906H5.94355C5.61669 5.53906 5.42536 5.90707 5.6129 6.17462L8.42215 10.1853C9.17104 9.48666 10.1251 9.00457 11.1852 8.8405ZM12.0005 9.57752C9.54586 9.57752 7.55818 11.5652 7.55818 14.0198C7.55818 16.4745 9.54712 18.4621 12.0005 18.4621C14.4538 18.4621 16.4428 16.4745 16.4428 14.0198C16.4428 11.5652 14.4564 9.57752 12.0005 9.57752ZM14.3352 13.5478L13.3791 14.4817L13.6031 15.8005C13.6441 16.034 13.3949 16.217 13.1834 16.1034L12.0001 15.482L10.8167 16.1022C10.6053 16.2157 10.3561 16.0328 10.397 15.7993L10.621 14.4805L9.66486 13.5466C9.49159 13.3787 9.59003 13.0859 9.82729 13.0506L11.1494 12.8581L11.7405 11.6599C11.791 11.5526 11.8951 11.4989 11.9992 11.4989C12.1033 11.4989 12.2075 11.5538 12.2579 11.6599L12.8511 12.8588L14.1732 13.0512C14.4135 13.0859 14.5094 13.3787 14.3352 13.5478ZM18.0355 5.53906H15.0218C14.8799 5.53906 14.7484 5.6135 14.6755 5.73518L12.8137 8.81703C13.8738 8.98109 14.8299 9.46369 15.5775 10.1644L18.3868 6.15367C18.5756 5.90707 18.3838 5.53906 18.0355 5.53906Z" fill="white"/>
</g>
<defs>
<clipPath id="clip0_1084_911">
<rect width="12.9231" height="12.9231" fill="white" transform="translate(5.53906 5.53906)"/>
</clipPath>
</defs>
</svg>
