<svg width="42" height="37" viewBox="0 0 42 37" fill="none" xmlns="http://www.w3.org/2000/svg">
<rect width="42" height="37" rx="10" fill="#102E5F"/>
<path d="M23.6667 25.3751H22.3333V16.1876C22.3333 15.462 21.7362 14.8751 21 14.8751H18.3333C17.5971 14.8751 17 15.462 17 16.1876C17 16.9131 17.5971 17.4632 18.3333 17.4632H19.6667V25.3382H18.3333C17.5971 25.3382 17 25.9251 17 26.6507C17 27.3762 17.5971 27.9632 18.3333 27.9632H23.6667C24.4029 27.9632 25 27.3762 25 26.6507C25 25.9251 24.4042 25.3751 23.6667 25.3751ZM21 12.2501C22.1046 12.2501 23 11.3687 23 10.2813C23 9.194 22.1042 8.31299 21 8.31299C19.8958 8.31299 19 9.19441 19 10.2817C19 11.3691 19.8954 12.2501 21 12.2501Z" fill="white"/>
</svg>
