<svg width="23" height="22" viewBox="0 0 23 22" fill="none" xmlns="http://www.w3.org/2000/svg">
<path d="M21.6106 20.5719C20.7668 21.4045 19.371 21.4316 18.4923 20.6339L11.3307 14.1326L4.46173 20.9107C3.61788 21.7434 2.22308 21.7695 1.34431 20.9717C0.465528 20.174 0.434991 18.8539 1.27883 18.0212L8.14786 11.2432L0.986345 4.74196C0.107568 3.9442 0.0779849 2.6232 0.921825 1.79053C1.76567 0.957864 3.16047 0.931728 4.03925 1.72948L11.2008 8.23072L18.0698 1.45266C18.9136 0.619994 20.3094 0.592916 21.1882 1.39067C22.0669 2.18843 22.0965 3.50943 21.2527 4.3421L14.3836 11.1202L21.5452 17.6214C22.4259 18.42 22.455 19.7387 21.6106 20.5719Z" fill="#A0A0A0"/>
</svg>
