<svg width="16" height="16" viewBox="0 0 16 16" fill="none" xmlns="http://www.w3.org/2000/svg">
<g clip-path="url(#clip0_664_1413)">
<path d="M8 0C3.58125 0 0 3.58125 0 8C0 12.4187 3.58125 16 8 16C12.4187 16 16 12.4187 16 8C16 3.58125 12.4187 0 8 0ZM12.2063 7.70625L8.70625 11.2063C8.5125 11.4031 8.25625 11.5 8 11.5C7.74375 11.5 7.48813 11.4023 7.29313 11.207L3.79312 7.70703C3.4025 7.31641 3.4025 6.68359 3.79312 6.29297C4.18375 5.90234 4.81656 5.90234 5.20719 6.29297L8 9.0875L10.7931 6.29437C11.1838 5.90375 11.8166 5.90375 12.2072 6.29437C12.5978 6.685 12.5969 7.31563 12.2063 7.70625Z" fill="#474646"/>
</g>
<defs>
<clipPath id="clip0_664_1413">
<rect width="16" height="16" fill="white"/>
</clipPath>
</defs>
</svg>
