<svg width="14" height="14" viewBox="0 0 14 14" fill="none" xmlns="http://www.w3.org/2000/svg">
<g clip-path="url(#clip0_748_1785)">
<path d="M7.875 7C7.875 7.48398 7.48398 7.875 7 7.875C6.51602 7.875 6.125 7.48398 6.125 7C6.125 6.51602 6.51602 6.125 7 6.125C7.48398 6.125 7.875 6.51602 7.875 7ZM0 7C0 3.13359 3.13359 0 7 0C10.8664 0 14 3.13359 14 7C14 10.8664 10.8664 14 7 14C3.13359 14 0 10.8664 0 7ZM8.88945 8.38633L10.407 4.44062C10.6121 3.88555 10.0898 3.38789 9.55937 3.59297L5.61367 5.11055C5.38125 5.19805 5.19805 5.38125 5.11055 5.61367L3.59297 9.55937C3.38789 10.0898 3.88555 10.6121 4.44062 10.407L8.38633 8.88945C8.61875 8.80195 8.80195 8.61875 8.88945 8.38633Z" fill="white"/>
</g>
<defs>
<clipPath id="clip0_748_1785">
<rect width="14" height="14" fill="white"/>
</clipPath>
</defs>
</svg>
