<svg width="14" height="12" viewBox="0 0 14 12" fill="none" xmlns="http://www.w3.org/2000/svg">
<g clip-path="url(#clip0_748_1779)">
<path d="M6.99781 7C8.25366 7 9.25313 5.9815 9.25313 4.725C9.25313 3.4685 8.23506 2.45 6.99781 2.45C5.74197 2.45 4.7425 3.4685 4.7425 4.725C4.72281 5.98063 5.74219 7 6.99781 7ZM8.09156 7.7H5.90844C4.19125 7.7 2.8 9.00594 2.8 10.6159C2.8 10.9397 3.07781 11.2 3.42125 11.2H10.5787C10.9222 11.2 11.2 10.9397 11.2 10.6159C11.2 9.00594 9.80875 7.7 8.09156 7.7ZM11.2 3.5C12.1664 3.5 12.95 2.71644 12.95 1.75C12.95 0.783562 12.1669 0 11.2 0C10.2336 0 9.45 0.783562 9.45 1.75C9.45 2.71644 10.2331 3.5 11.2 3.5ZM4.02281 4.725C4.02281 4.6058 4.0443 4.49247 4.05801 4.37697C3.81938 4.24594 3.55687 4.2 3.27906 4.2H1.92675C0.86275 4.2 0 5.11437 0 6.24094C0 6.46625 0.172528 6.65 0.385438 6.65H4.7495C4.30281 6.12937 4.02281 5.46219 4.02281 4.725ZM2.8 3.5C3.76644 3.5 4.55 2.71644 4.55 1.75C4.55 0.783562 3.76688 0 2.8 0C1.83356 0 1.05 0.783562 1.05 1.75C1.05 2.71644 1.83356 3.5 2.8 3.5ZM12.0728 4.2H10.7201C10.4401 4.2 10.1758 4.26643 9.93563 4.38025C9.94875 4.49531 9.97062 4.60687 9.97062 4.725C9.97062 5.46241 9.69106 6.12959 9.24525 6.65H13.6137C13.8272 6.65 14 6.46625 14 6.24094C14 5.11437 13.1381 4.2 12.0728 4.2Z" fill="#FCFCFC"/>
</g>
<defs>
<clipPath id="clip0_748_1779">
<rect width="14" height="11.2" fill="white"/>
</clipPath>
</defs>
</svg>
