<svg width="16" height="16" viewBox="0 0 16 16" fill="none" xmlns="http://www.w3.org/2000/svg">
<g clip-path="url(#clip0_866_856)">
<path d="M14.775 5.26255C16.4094 6.9188 16.4094 9.58131 14.775 11.2376L11.275 14.7782C10.9844 15.0719 10.5094 15.0751 10.2156 14.7844C9.91875 14.4938 9.91875 14.0188 10.2094 13.7219L13.7063 10.1844C14.7656 9.11256 14.7656 7.38756 13.7063 6.31568L9.71562 2.27724C9.42187 1.98255 9.425 1.50786 9.72188 1.21661C10.0156 0.925365 10.4906 0.928177 10.7531 1.22286L14.775 5.26255ZM9.375e-06 7.17193V2.50005C9.375e-06 1.67162 0.671562 1.00005 1.5 1.00005H6.17188C6.70312 1.00005 7.20937 1.21068 7.58437 1.58599L12.8344 6.83443C13.6156 7.61568 13.6156 8.88443 12.8344 9.66568L8.66562 13.8344C7.88437 14.6157 6.61562 14.6157 5.83437 13.8344L0.585938 8.58443C0.210719 8.20943 0 7.70318 0 7.17193H9.375e-06ZM3.5 3.50005C2.94781 3.50005 2.5 3.94693 2.5 4.50005C2.5 5.05318 2.94781 5.50005 3.5 5.50005C4.05313 5.50005 4.5 5.05318 4.5 4.50005C4.5 3.94693 4.05313 3.50005 3.5 3.50005Z" fill="white"/>
</g>
<defs>
<clipPath id="clip0_866_856">
<rect width="16" height="16" fill="white"/>
</clipPath>
</defs>
</svg>
