<svg width="26" height="26" viewBox="0 0 26 26" fill="none" xmlns="http://www.w3.org/2000/svg">
<path d="M4.875 9.70426H1.625C0.727695 9.70426 0 10.432 0 11.2836V22.6129C0 23.5102 0.727695 24.1922 1.625 24.1922H4.875C5.7723 24.1922 6.5 23.4645 6.5 22.6129V11.3293C6.5 10.4761 5.77383 9.70426 4.875 9.70426ZM26 11.5273C26 9.65399 24.474 8.12903 22.5992 8.12903H17.5282C18.0121 6.86051 18.2812 5.76363 18.2812 5.11871C18.2812 3.40231 16.9508 1.62598 14.7235 1.62598C12.3566 1.62598 11.7091 3.27332 11.1886 4.59668C9.5809 8.68457 8.125 7.96805 8.125 9.34321C8.125 9.99524 8.65109 10.5614 9.34477 10.5614C9.61167 10.5614 9.88051 10.4741 10.105 10.2943C14.0029 7.17789 13.0487 4.06348 14.7235 4.06348C15.5401 4.06348 15.8438 4.71094 15.8438 5.11922C15.8438 5.4952 15.4581 7.12762 14.5463 8.75465C14.4424 8.9398 14.3906 9.14496 14.3906 9.34981C14.3906 10.0567 14.971 10.5229 15.6093 10.5229H22.5968C23.1309 10.5675 23.5625 10.9992 23.5625 11.5273C23.5625 12.0254 23.1681 12.4429 22.6652 12.4774C22.0223 12.5211 21.5297 13.0563 21.5297 13.6931C21.5297 14.4787 22.1081 14.5031 22.1081 15.1612C22.1081 16.4495 20.3293 15.7879 20.3293 17.3016C20.3293 17.8714 20.6539 17.9633 20.6539 18.4315C20.6539 19.5822 19.1421 19.1303 19.1421 20.4953C19.1421 20.7246 19.1985 20.798 19.1985 20.9755C19.1985 21.5061 18.766 21.9378 18.2351 21.9378H15.5676C14.2666 21.9378 12.9767 21.5079 11.9367 20.7287L10.0751 19.3317C9.85598 19.1669 9.59928 19.0874 9.34487 19.0874C8.64155 19.0874 8.12459 19.6653 8.12459 20.3082C8.12459 20.6782 8.29278 21.0404 8.61189 21.2796L10.474 22.6771C11.9336 23.7707 13.7414 24.375 15.5695 24.375H18.2371C20.0312 24.375 21.5054 22.979 21.6293 21.2164C22.5316 20.5953 23.0933 19.5655 23.0933 18.432C23.0933 18.2774 23.0822 18.1219 23.0607 17.9688C23.9667 17.3518 24.5476 16.3144 24.5476 15.1616C24.5476 14.8919 24.5151 14.6264 24.4524 14.3674C25.3855 13.716 26 12.7054 26 11.5273Z" fill="#474646"/>
</svg>
