<svg width="14" height="12" viewBox="0 0 14 12" fill="none" xmlns="http://www.w3.org/2000/svg">
<g clip-path="url(#clip0_723_1093)">
<path d="M6.00906 6.65H3.79094C1.69772 6.65 0 8.3475 0 10.4409C0 10.8609 0.3395 11.2 0.758187 11.2H9.04094C9.46094 11.2 9.8 10.8609 9.8 10.4409C9.8 8.3475 8.1025 6.65 6.00906 6.65ZM4.9 5.6C6.44656 5.6 7.7 4.34634 7.7 2.8C7.7 1.25366 6.44656 0 4.9 0C3.35344 0 2.1 1.25366 2.1 2.8C2.1 4.34634 3.35344 5.6 4.9 5.6ZM13.8316 2.94C13.6193 2.74312 13.2867 2.75509 13.0896 2.96769L11.1853 5.01848L10.3456 4.17869C10.1405 3.97362 9.80831 3.97362 9.60312 4.17869C9.39794 4.38377 9.39805 4.71594 9.60312 4.92113L10.8281 6.14613C10.9266 6.24531 11.06 6.3 11.2 6.3H11.2096C11.3524 6.29727 11.4878 6.23676 11.5849 6.13217L13.8599 3.68217C14.0569 3.46937 14.0437 3.13687 13.8316 2.94Z" fill="#FCFCFC"/>
</g>
<defs>
<clipPath id="clip0_723_1093">
<rect width="14" height="11.2" fill="white"/>
</clipPath>
</defs>
</svg>
