<svg width="24" height="24" viewBox="0 0 24 24" fill="none" xmlns="http://www.w3.org/2000/svg">
<path d="M20.9578 0H2.95782C1.30548 0 -0.0421753 1.34766 -0.0421753 2.95781V16.4156C-0.0421753 18.068 1.30548 19.3734 2.95782 19.3734H7.45782V23.31C7.45782 23.7711 7.97439 24.0389 8.35407 23.7647L14.2088 19.3734H20.9588C22.6111 19.3734 23.9588 18.0258 23.9588 16.4156V2.95781C23.9578 1.34766 22.65 0 20.9578 0ZM21.75 16.5C21.75 16.9102 21.4102 17.25 21 17.25H13.5L9.75001 20.0625V17.25H3.00001C2.58986 17.25 2.25001 16.9102 2.25001 16.5V3C2.25001 2.58984 2.58986 2.25 3.00001 2.25H21C21.4102 2.25 21.75 2.58984 21.75 3V16.5Z" fill="#474646"/>
</svg>
